<?xml version="1.0" encoding="UTF-8" standalone="no"?>
<!-- Created with Inkscape (http://www.inkscape.org/) -->

<svg
   xmlns:dc="http://purl.org/dc/elements/1.1/"
   xmlns:cc="http://creativecommons.org/ns#"
   xmlns:rdf="http://www.w3.org/1999/02/22-rdf-syntax-ns#"
   xmlns:svg="http://www.w3.org/2000/svg"
   xmlns="http://www.w3.org/2000/svg"
   xmlns:sodipodi="http://sodipodi.sourceforge.net/DTD/sodipodi-0.dtd"
   xmlns:inkscape="http://www.inkscape.org/namespaces/inkscape"
   width="64px"
   height="64px"
   viewBox="0 0 64 64"
   version="1.1"
   id="SVGRoot"
   inkscape:version="0.92.1 r15371"
   sodipodi:docname="GreenHorn_64svg.svg">
  <sodipodi:namedview
     id="base"
     pagecolor="#ffffff"
     bordercolor="#666666"
     borderopacity="1.0"
     inkscape:pageopacity="0.0"
     inkscape:pageshadow="2"
     inkscape:zoom="4"
     inkscape:cx="32"
     inkscape:cy="32"
     inkscape:document-units="px"
     inkscape:current-layer="layer1"
     showgrid="false"
     inkscape:window-width="1920"
     inkscape:window-height="1001"
     inkscape:window-x="-9"
     inkscape:window-y="-9"
     inkscape:window-maximized="1"
     inkscape:grid-bbox="true" />
  <defs
     id="defs6460" />
  <metadata
     id="metadata6463">
    <rdf:RDF>
      <cc:Work
         rdf:about="">
        <dc:format>image/svg+xml</dc:format>
        <dc:type
           rdf:resource="http://purl.org/dc/dcmitype/StillImage" />
        <dc:title></dc:title>
      </cc:Work>
    </rdf:RDF>
  </metadata>
  <g
     id="layer1"
     inkscape:groupmode="layer"
     inkscape:label="Layer 1">
    <g
       style="display:inline"
       id="g5212"
       transform="matrix(0.89129292,0,0,0.89129292,10.329458,0.27889394)">
      <g
         aria-label="GreenHorn"
         transform="matrix(0.26458333,0,0,0.26458333,-51.782738,-32.127976)"
         style="font-style:normal;font-weight:normal;font-size:40px;line-height:1.25;font-family:sans-serif;letter-spacing:0px;word-spacing:0px;fill:#000000;fill-opacity:1;stroke:none"
         id="flowRoot4485">
        <path
           d="m 223.84516,340.15437 q 1.48,0 1.48,1.4 v 13.36 q -1.56,0.64 -3.52,1 -1.92,0.36 -4.4,0.36 -2.92,0 -5.04,-0.68 -2.08,-0.68 -3.48,-2.32 -1.36,-1.68 -2.04,-4.44 -0.64,-2.76 -0.64,-6.92 0,-4.28 0.68,-7.08 0.68,-2.8 2.04,-4.4 1.4,-1.64 3.48,-2.28 2.08,-0.64 4.84,-0.64 2.68,0 4.04,0.44 1.4,0.44 1.84,0.68 0.72,0.4 0.88,0.8 0.16,0.4 0.16,1.24 v 2.84 q -0.64,-0.04 -1.4,-0.08 -0.76,-0.08 -1.52,-0.08 -0.76,-0.04 -1.44,-0.04 -0.68,-0.04 -1.12,-0.04 -1.56,0 -2.64,0.24 -1.04,0.2 -1.68,1.04 -0.64,0.84 -0.92,2.56 -0.24,1.68 -0.24,4.6 0,2.92 0.2,4.72 0.24,1.76 0.76,2.72 0.52,0.96 1.36,1.28 0.84,0.32 2.08,0.32 0.32,0 0.72,0 0.4,0 0.8,-0.04 v -5.36 h -1.36 q -0.52,0 -0.88,-0.32 -0.36,-0.36 -0.36,-1 v -3.88 z"
           style="font-style:normal;font-variant:normal;font-weight:bold;font-stretch:normal;font-size:40px;font-family:'HP Simplified';-inkscape-font-specification:'HP Simplified, Bold';font-variant-ligatures:normal;font-variant-caps:normal;font-variant-numeric:normal;font-feature-settings:normal;text-align:start;writing-mode:lr-tb;text-anchor:start"
           id="path5129"
           inkscape:connector-curvature="0" />
        <path
           d="m 240.17203,334.87437 q 1.56,0 1.56,1.4 v 4.6 q -0.28,-0.04 -0.52,-0.04 -0.24,0 -0.56,0 -1.28,0 -2.56,0.2 -1.24,0.2 -2.04,0.88 v 13.84 h -5.2 q -1.48,0 -1.48,-1.4 v -19.36 h 3.84 q 0.88,0 1.24,0.32 0.36,0.28 0.68,1.28 l 0.32,1.08 q 0.84,-1.32 2.08,-2.04 1.24,-0.76 2.64,-0.76 z"
           style="font-style:normal;font-variant:normal;font-weight:bold;font-stretch:normal;font-size:40px;font-family:'HP Simplified';-inkscape-font-specification:'HP Simplified, Bold';font-variant-ligatures:normal;font-variant-caps:normal;font-variant-numeric:normal;font-feature-settings:normal;text-align:start;writing-mode:lr-tb;text-anchor:start"
           id="path5131"
           inkscape:connector-curvature="0" />
        <path
           d="m 260.33578,354.95437 q -1.04,0.44 -2.88,0.88 -1.8,0.44 -4.48,0.44 -2.36,0 -4.08,-0.6 -1.72,-0.6 -2.88,-1.92 -1.12,-1.32 -1.68,-3.36 -0.52,-2.08 -0.52,-5 0,-5.8 2.16,-8.32 2.2,-2.56 6.84,-2.56 2.44,0 3.96,0.68 1.56,0.68 2.44,1.88 0.88,1.16 1.2,2.8 0.32,1.6 0.32,3.48 0,0.4 -0.04,1 -0.04,0.6 -0.16,1.2 -0.08,0.6 -0.2,1.16 -0.12,0.52 -0.24,0.8 h -10.08 q 0,2.04 0.96,2.84 1,0.8 3.12,0.8 1.96,0 2.96,-0.04 1.04,-0.08 1.8,-0.08 0.8,0 1.12,0.4 0.36,0.36 0.36,1.04 z m -5.28,-11.32 q 0,-2.48 -0.52,-3.4 -0.48,-0.96 -1.8,-0.96 -1.6,0 -2.16,1 -0.52,1 -0.56,3.36 z"
           style="font-style:normal;font-variant:normal;font-weight:bold;font-stretch:normal;font-size:40px;font-family:'HP Simplified';-inkscape-font-specification:'HP Simplified, Bold';font-variant-ligatures:normal;font-variant-caps:normal;font-variant-numeric:normal;font-feature-settings:normal;text-align:start;writing-mode:lr-tb;text-anchor:start"
           id="path5133"
           inkscape:connector-curvature="0" />
        <path
           d="m 280.49203,354.95437 q -1.04,0.44 -2.88,0.88 -1.8,0.44 -4.48,0.44 -2.36,0 -4.08,-0.6 -1.72,-0.6 -2.88,-1.92 -1.12,-1.32 -1.68,-3.36 -0.52,-2.08 -0.52,-5 0,-5.8 2.16,-8.32 2.2,-2.56 6.84,-2.56 2.44,0 3.96,0.68 1.56,0.68 2.44,1.88 0.88,1.16 1.2,2.8 0.32,1.6 0.32,3.48 0,0.4 -0.04,1 -0.04,0.6 -0.16,1.2 -0.08,0.6 -0.2,1.16 -0.12,0.52 -0.24,0.8 h -10.08 q 0,2.04 0.96,2.84 1,0.8 3.12,0.8 1.96,0 2.96,-0.04 1.04,-0.08 1.8,-0.08 0.8,0 1.12,0.4 0.36,0.36 0.36,1.04 z m -5.28,-11.32 q 0,-2.48 -0.52,-3.4 -0.48,-0.96 -1.8,-0.96 -1.6,0 -2.16,1 -0.52,1 -0.56,3.36 z"
           style="font-style:normal;font-variant:normal;font-weight:bold;font-stretch:normal;font-size:40px;font-family:'HP Simplified';-inkscape-font-specification:'HP Simplified, Bold';font-variant-ligatures:normal;font-variant-caps:normal;font-variant-numeric:normal;font-feature-settings:normal;text-align:start;writing-mode:lr-tb;text-anchor:start"
           id="path5135"
           inkscape:connector-curvature="0" />
        <path
           d="m 291.20828,355.75437 h -5.2 q -1.48,0 -1.48,-1.4 v -19.36 h 3.84 q 0.92,0 1.24,0.32 0.36,0.28 0.68,1.28 l 0.24,0.72 q 1.4,-1.52 2.72,-2.16 1.36,-0.64 3.16,-0.64 5.68,0 5.68,7.04 v 14.2 h -5.2 q -1.48,0 -1.48,-1.4 v -12.12 q 0,-1.04 -0.4,-1.52 -0.4,-0.52 -1.48,-0.52 -0.6,0 -1.24,0.2 -0.64,0.2 -1.08,0.6 z"
           style="font-style:normal;font-variant:normal;font-weight:bold;font-stretch:normal;font-size:40px;font-family:'HP Simplified';-inkscape-font-specification:'HP Simplified, Bold';font-variant-ligatures:normal;font-variant-caps:normal;font-variant-numeric:normal;font-feature-settings:normal;text-align:start;writing-mode:lr-tb;text-anchor:start"
           id="path5137"
           inkscape:connector-curvature="0" />
        <path
           d="m 324.92891,328.03437 q 1.48,0 1.48,1.4 v 26.32 h -5.52 q -1.48,0 -1.48,-1.4 v -9.96 h -5.92 v 11.36 h -5.52 q -1.48,0 -1.48,-1.4 v -26.32 h 5.52 q 1.48,0 1.48,1.4 v 9.28 h 5.92 v -10.68 z"
           style="font-style:normal;font-variant:normal;font-weight:bold;font-stretch:normal;font-size:40px;font-family:'HP Simplified';-inkscape-font-specification:'HP Simplified, Bold';font-variant-ligatures:normal;font-variant-caps:normal;font-variant-numeric:normal;font-feature-settings:normal;text-align:start;writing-mode:lr-tb;text-anchor:start"
           id="path5139"
           inkscape:connector-curvature="0" />
        <path
           d="m 339.49828,356.27437 q -2.44,0 -4.2,-0.6 -1.72,-0.64 -2.84,-1.96 -1.08,-1.32 -1.6,-3.36 -0.48,-2.08 -0.48,-4.96 0,-2.92 0.48,-4.96 0.52,-2.08 1.6,-3.4 1.12,-1.32 2.84,-1.92 1.76,-0.6 4.2,-0.6 2.44,0 4.16,0.6 1.76,0.6 2.84,1.92 1.12,1.32 1.6,3.4 0.52,2.04 0.52,4.96 0,2.88 -0.52,4.96 -0.48,2.04 -1.6,3.36 -1.08,1.32 -2.84,1.96 -1.72,0.6 -4.16,0.6 z m 2.36,-10.88 q 0,-1.92 -0.12,-3.04 -0.08,-1.16 -0.36,-1.76 -0.28,-0.64 -0.72,-0.84 -0.44,-0.2 -1.16,-0.2 -0.72,0 -1.16,0.2 -0.44,0.2 -0.72,0.84 -0.28,0.6 -0.4,1.76 -0.08,1.12 -0.08,3.04 0,1.96 0.08,3.12 0.12,1.16 0.4,1.8 0.28,0.6 0.72,0.8 0.44,0.2 1.16,0.2 0.72,0 1.16,-0.2 0.44,-0.2 0.72,-0.8 0.28,-0.64 0.36,-1.8 0.12,-1.16 0.12,-3.12 z"
           style="font-style:normal;font-variant:normal;font-weight:bold;font-stretch:normal;font-size:40px;font-family:'HP Simplified';-inkscape-font-specification:'HP Simplified, Bold';font-variant-ligatures:normal;font-variant-caps:normal;font-variant-numeric:normal;font-feature-settings:normal;text-align:start;writing-mode:lr-tb;text-anchor:start"
           id="path5141"
           inkscape:connector-curvature="0" />
        <path
           d="m 363.06266,334.87437 q 1.56,0 1.56,1.4 v 4.6 q -0.28,-0.04 -0.52,-0.04 -0.24,0 -0.56,0 -1.28,0 -2.56,0.2 -1.24,0.2 -2.04,0.88 v 13.84 h -5.2 q -1.48,0 -1.48,-1.4 v -19.36 h 3.84 q 0.88,0 1.24,0.32 0.36,0.28 0.68,1.28 l 0.32,1.08 q 0.84,-1.32 2.08,-2.04 1.24,-0.76 2.64,-0.76 z"
           style="font-style:normal;font-variant:normal;font-weight:bold;font-stretch:normal;font-size:40px;font-family:'HP Simplified';-inkscape-font-specification:'HP Simplified, Bold';font-variant-ligatures:normal;font-variant-caps:normal;font-variant-numeric:normal;font-feature-settings:normal;text-align:start;writing-mode:lr-tb;text-anchor:start"
           id="path5143"
           inkscape:connector-curvature="0" />
        <path
           d="m 374.25516,355.75437 h -5.2 q -1.48,0 -1.48,-1.4 v -19.36 h 3.84 q 0.92,0 1.24,0.32 0.36,0.28 0.68,1.28 l 0.24,0.72 q 1.4,-1.52 2.72,-2.16 1.36,-0.64 3.16,-0.64 5.68,0 5.68,7.04 v 14.2 h -5.2 q -1.48,0 -1.48,-1.4 v -12.12 q 0,-1.04 -0.4,-1.52 -0.4,-0.52 -1.48,-0.52 -0.6,0 -1.24,0.2 -0.64,0.2 -1.08,0.6 z"
           style="font-style:normal;font-variant:normal;font-weight:bold;font-stretch:normal;font-size:40px;font-family:'HP Simplified';-inkscape-font-specification:'HP Simplified, Bold';font-variant-ligatures:normal;font-variant-caps:normal;font-variant-numeric:normal;font-feature-settings:normal;text-align:start;writing-mode:lr-tb;text-anchor:start"
           id="path5145"
           inkscape:connector-curvature="0" />
      </g>
      <g
         aria-label="Software"
         style="font-style:normal;font-weight:normal;font-size:10.58333302px;line-height:1.25;font-family:sans-serif;letter-spacing:0px;word-spacing:0px;fill:#000000;fill-opacity:1;stroke:none;stroke-width:0.26458332"
         id="text4495"
         transform="translate(-51.782738,-32.127976)">
        <path
           d="m 58.682458,98.040798 q 0,-0.938388 0.5334,-1.412522 0.5334,-0.474133 1.649589,-0.474133 0.414866,0 0.829733,0.05927 0.414867,0.04939 0.642056,0.128411 0.158044,0.06914 0.187677,0.158044 0.03951,0.07902 0.03951,0.187678 v 0.454378 q -0.365478,-0.04939 -0.750712,-0.07902 -0.385233,-0.03951 -0.790222,-0.03951 -0.385233,0 -0.642055,0.06915 -0.256823,0.05927 -0.414867,0.1778 -0.148167,0.118533 -0.217311,0.296333 -0.05927,0.1778 -0.05927,0.414867 0,0.2667 0.06914,0.4445 0.06914,0.167922 0.227188,0.296333 0.167923,0.128411 0.424745,0.237067 0.2667,0.09878 0.651933,0.237066 0.395111,0.148167 0.7112,0.296334 0.325967,0.148167 0.553156,0.375355 0.237067,0.217311 0.3556,0.543281 0.128411,0.31608 0.128411,0.80997 0,1.0668 -0.572911,1.53106 -0.572911,0.45438 -1.659467,0.45438 -0.474133,0 -0.918633,-0.0691 -0.4445,-0.0593 -0.691445,-0.14816 -0.128411,-0.0494 -0.1778,-0.12842 -0.04939,-0.079 -0.04939,-0.19755 v -0.49389 q 0.345723,0.0494 0.760589,0.0988 0.424745,0.0494 0.898878,0.0494 0.414867,0 0.681567,-0.0692 0.276578,-0.079 0.424744,-0.20743 0.158045,-0.13829 0.217311,-0.33585 0.05927,-0.19755 0.05927,-0.4445 0,-0.27657 -0.06914,-0.45437 -0.05927,-0.1778 -0.217311,-0.29634 -0.158045,-0.12841 -0.424745,-0.23706 -0.256822,-0.10866 -0.651933,-0.24695 -0.414867,-0.148163 -0.740834,-0.306207 -0.316089,-0.158045 -0.543277,-0.375356 -0.217312,-0.227189 -0.335845,-0.5334 -0.118533,-0.316089 -0.118533,-0.770467 z"
           style="font-style:normal;font-variant:normal;font-weight:normal;font-stretch:normal;font-size:9.87777805px;font-family:'HP Simplified';-inkscape-font-specification:'HP Simplified, Normal';font-variant-ligatures:normal;font-variant-caps:normal;font-variant-numeric:normal;font-feature-settings:normal;text-align:start;writing-mode:lr-tb;text-anchor:start;stroke-width:0.26458332"
           id="path5148"
           inkscape:connector-curvature="0" />
        <path
           d="m 65.899409,103.21675 q -1.116189,0 -1.619955,-0.63217 -0.493889,-0.63218 -0.493889,-2.00519 0,-1.363136 0.493889,-1.995314 0.503766,-0.632178 1.619955,-0.632178 1.116189,0 1.610078,0.632178 0.503767,0.632178 0.503767,1.995314 0,1.37301 -0.503767,2.00519 -0.493889,0.63217 -1.610078,0.63217 z m 1.106311,-2.63736 q 0,-0.5334 -0.06914,-0.889003 -0.05927,-0.3556 -0.197556,-0.563033 -0.128411,-0.217311 -0.345722,-0.306211 -0.207433,-0.0889 -0.493889,-0.0889 -0.286455,0 -0.503766,0.0889 -0.207434,0.0889 -0.345723,0.306211 -0.128411,0.207433 -0.197555,0.563033 -0.05927,0.355603 -0.05927,0.889003 0,0.54328 0.05927,0.90875 0.06914,0.3556 0.197555,0.57291 0.138289,0.20744 0.345723,0.29634 0.217311,0.079 0.503766,0.079 0.286456,0 0.493889,-0.079 0.217311,-0.0889 0.345722,-0.29634 0.138289,-0.21731 0.197556,-0.57291 0.06914,-0.36547 0.06914,-0.90875 z"
           style="font-style:normal;font-variant:normal;font-weight:normal;font-stretch:normal;font-size:9.87777805px;font-family:'HP Simplified';-inkscape-font-specification:'HP Simplified, Normal';font-variant-ligatures:normal;font-variant-caps:normal;font-variant-numeric:normal;font-feature-settings:normal;text-align:start;writing-mode:lr-tb;text-anchor:start;stroke-width:0.26458332"
           id="path5150"
           inkscape:connector-curvature="0" />
        <path
           d="m 71.259801,98.070432 q 0.108656,0 0.167923,0.05927 0.06914,0.05927 0.06914,0.167923 v 0.563033 h -1.234722 v 4.237562 h -0.770467 q -0.227189,0 -0.227189,-0.22719 v -4.010372 h -0.345722 q -0.237067,0 -0.237067,-0.227189 v -0.563033 h 0.582789 v -0.760589 q 0,-0.671689 0.306211,-1.037167 0.306211,-0.375355 1.0668,-0.375355 0.158045,0 0.395111,0.02963 0.237067,0.01976 0.375356,0.07902 0.108656,0.04939 0.138289,0.128411 0.03951,0.06914 0.03951,0.167923 v 0.434622 q -0.246944,-0.02963 -0.375356,-0.03951 -0.128411,-0.0099 -0.306211,-0.0099 -0.217311,0 -0.345722,0.04939 -0.128411,0.04939 -0.197555,0.138289 -0.05927,0.0889 -0.07902,0.217311 -0.01976,0.118533 -0.01976,0.2667 v 0.7112 z"
           style="font-style:normal;font-variant:normal;font-weight:normal;font-stretch:normal;font-size:9.87777805px;font-family:'HP Simplified';-inkscape-font-specification:'HP Simplified, Normal';font-variant-ligatures:normal;font-variant-caps:normal;font-variant-numeric:normal;font-feature-settings:normal;text-align:start;writing-mode:lr-tb;text-anchor:start;stroke-width:0.26458332"
           id="path5152"
           inkscape:connector-curvature="0" />
        <path
           d="m 74.901306,103.06859 q -0.227189,0.0593 -0.434622,0.0889 -0.197556,0.0296 -0.414867,0.0296 -0.7112,0 -1.037166,-0.31609 -0.316089,-0.31609 -0.316089,-0.99765 V 98.860654 H 72.35284 q -0.237067,0 -0.237067,-0.227189 v -0.563033 h 0.602544 l 0.04939,-1.303867 h 0.691445 q 0.237066,0 0.237066,0.227189 v 1.076678 h 0.968023 q 0.108655,0 0.167922,0.05927 0.06914,0.05927 0.06914,0.167923 v 0.563033 h -1.205089 v 2.963332 q 0,0.2667 0.0889,0.41486 0.0889,0.14817 0.3556,0.14817 0.167923,0 0.276578,0 0.118533,-0.01 0.217311,-0.01 0.2667,0 0.2667,0.22719 z"
           style="font-style:normal;font-variant:normal;font-weight:normal;font-stretch:normal;font-size:9.87777805px;font-family:'HP Simplified';-inkscape-font-specification:'HP Simplified, Normal';font-variant-ligatures:normal;font-variant-caps:normal;font-variant-numeric:normal;font-feature-settings:normal;text-align:start;writing-mode:lr-tb;text-anchor:start;stroke-width:0.26458332"
           id="path5154"
           inkscape:connector-curvature="0" />
        <path
           d="m 78.955825,98.485298 q 0.158044,0 0.227189,0.04939 0.06914,0.04939 0.118533,0.217311 l 0.889,3.299181 q 0.128411,-0.43463 0.246945,-0.94827 0.118533,-0.52352 0.217311,-1.05692 0.09878,-0.533402 0.167922,-1.047046 0.06914,-0.513645 0.118533,-0.928511 h 0.721078 q 0.138289,0 0.1778,0.06914 0.03951,0.05927 0.02963,0.167922 -0.0099,0.118534 -0.02963,0.2667 -0.01976,0.138289 -0.03951,0.286456 -0.148167,0.987778 -0.424744,2.094089 -0.276578,1.09644 -0.691445,2.14348 H 79.91397 q -0.108655,0 -0.167922,-0.0494 -0.04939,-0.0593 -0.07902,-0.16792 l -0.889,-3.239914 -0.948267,3.457224 H 77.07905 q -0.138289,0 -0.187678,-0.0494 -0.04939,-0.0593 -0.0889,-0.16792 -0.217311,-0.56303 -0.404989,-1.16558 -0.1778,-0.60254 -0.325966,-1.21496 -0.148167,-0.622308 -0.256822,-1.23473 -0.108656,-0.612422 -0.167923,-1.195211 h 0.780345 q 0.217311,0 0.237067,0.227189 0.03951,0.404989 0.09878,0.879122 0.06915,0.474133 0.158045,0.9779 0.09878,0.49389 0.207433,0.98778 0.118533,0.48401 0.246945,0.90876 l 0.968022,-3.565885 z"
           style="font-style:normal;font-variant:normal;font-weight:normal;font-stretch:normal;font-size:9.87777805px;font-family:'HP Simplified';-inkscape-font-specification:'HP Simplified, Normal';font-variant-ligatures:normal;font-variant-caps:normal;font-variant-numeric:normal;font-feature-settings:normal;text-align:start;writing-mode:lr-tb;text-anchor:start;stroke-width:0.26458332"
           id="path5156"
           inkscape:connector-curvature="0" />
        <path
           d="m 84.442469,100.69792 q -0.296333,0 -0.493889,0.0692 -0.197555,0.0593 -0.316089,0.1778 -0.108655,0.10865 -0.158044,0.2667 -0.03951,0.15804 -0.03951,0.34572 0,0.45438 0.217311,0.66181 0.217311,0.20743 0.661811,0.20743 0.395111,0 0.681567,-0.14816 0.286455,-0.15805 0.493889,-0.3556 v -1.22485 z m -0.385233,2.4892 q -0.770467,0 -1.145822,-0.42474 -0.375356,-0.42475 -0.375356,-1.17546 0,-0.46425 0.138289,-0.77047 0.148167,-0.30621 0.404989,-0.48401 0.2667,-0.18767 0.6223,-0.25682 0.3556,-0.07902 0.770467,-0.07902 h 1.017411 v -0.335845 q 0,-0.513644 -0.2667,-0.701322 -0.2667,-0.187678 -0.908756,-0.187678 -0.434622,0 -0.780344,0.04939 -0.345723,0.03951 -0.454378,0.03951 -0.128411,0 -0.187678,-0.05927 -0.04939,-0.06914 -0.04939,-0.167922 v -0.424744 q 0.345722,-0.108656 0.780345,-0.1778 0.434622,-0.06915 0.889,-0.06915 0.563033,0 0.938389,0.128411 0.375355,0.118534 0.602544,0.345723 0.227189,0.227188 0.316089,0.553155 0.09878,0.325967 0.09878,0.721078 v 3.388074 H 85.86487 q -0.167922,0 -0.207433,-0.0691 -0.03951,-0.079 -0.05927,-0.1778 l -0.03951,-0.29634 q -0.256822,0.24695 -0.6223,0.4445 -0.3556,0.18768 -0.879122,0.18768 z"
           style="font-style:normal;font-variant:normal;font-weight:normal;font-stretch:normal;font-size:9.87777805px;font-family:'HP Simplified';-inkscape-font-specification:'HP Simplified, Normal';font-variant-ligatures:normal;font-variant-caps:normal;font-variant-numeric:normal;font-feature-settings:normal;text-align:start;writing-mode:lr-tb;text-anchor:start;stroke-width:0.26458332"
           id="path5158"
           inkscape:connector-curvature="0" />
        <path
           d="m 89.934976,98.040798 q 0.197556,0 0.2667,0.06915 0.06914,0.05927 0.06914,0.167922 v 0.661811 q -0.06914,-0.0099 -0.138289,-0.0099 -0.06914,0 -0.128411,0 -0.404989,0 -0.740834,0.128412 -0.325966,0.128411 -0.612422,0.434622 v 3.605385 h -0.760589 q -0.237067,0 -0.237067,-0.22719 v -4.800595 h 0.602545 q 0.128411,0 0.187678,0.05927 0.05927,0.04939 0.0889,0.187678 l 0.03951,0.434622 q 0.227189,-0.276577 0.582789,-0.493888 0.3556,-0.217312 0.780344,-0.217312 z"
           style="font-style:normal;font-variant:normal;font-weight:normal;font-stretch:normal;font-size:9.87777805px;font-family:'HP Simplified';-inkscape-font-specification:'HP Simplified, Normal';font-variant-ligatures:normal;font-variant-caps:normal;font-variant-numeric:normal;font-feature-settings:normal;text-align:start;writing-mode:lr-tb;text-anchor:start;stroke-width:0.26458332"
           id="path5160"
           inkscape:connector-curvature="0" />
        <path
           d="m 91.801258,100.95474 q 0.01976,0.39511 0.0889,0.67169 0.06915,0.27658 0.227189,0.45438 0.167922,0.16792 0.4445,0.24694 0.276578,0.079 0.7112,0.079 0.385233,0 0.701322,-0.0395 0.316089,-0.0395 0.434623,-0.0395 0.227189,0 0.227189,0.21732 v 0.41486 q -0.237067,0.0988 -0.651934,0.16792 -0.404989,0.079 -0.938389,0.079 -0.563033,0 -0.9779,-0.13829 -0.414866,-0.13829 -0.691444,-0.4445 -0.2667,-0.31609 -0.395111,-0.80998 -0.128411,-0.50377 -0.128411,-1.21497 0,-0.711197 0.128411,-1.214964 0.128411,-0.503766 0.385233,-0.819855 0.2667,-0.325967 0.651933,-0.464256 0.385234,-0.148167 0.898878,-0.148167 0.572911,0 0.938389,0.167923 0.365478,0.158044 0.572911,0.434622 0.207434,0.276578 0.286456,0.651933 0.07902,0.365478 0.07902,0.790223 0,0.286451 -0.02963,0.553151 -0.02963,0.2667 -0.07902,0.40499 z m 2.084211,-0.70132 q 0.0099,-0.0988 0.0099,-0.14817 0,-0.0494 0,-0.128407 0,-0.632178 -0.197555,-0.948267 -0.187678,-0.325966 -0.750712,-0.325966 -0.335844,0 -0.553155,0.108655 -0.217311,0.108656 -0.345722,0.306211 -0.128411,0.197556 -0.187678,0.493889 -0.04939,0.286456 -0.05927,0.642055 z"
           style="font-style:normal;font-variant:normal;font-weight:normal;font-stretch:normal;font-size:9.87777805px;font-family:'HP Simplified';-inkscape-font-specification:'HP Simplified, Normal';font-variant-ligatures:normal;font-variant-caps:normal;font-variant-numeric:normal;font-feature-settings:normal;text-align:start;writing-mode:lr-tb;text-anchor:start;stroke-width:0.26458332"
           id="path5162"
           inkscape:connector-curvature="0" />
      </g>
      <path
         style="fill:#74e766;fill-opacity:1;stroke:#ffffff;stroke-width:0.2;stroke-miterlimit:4;stroke-dasharray:none;stroke-opacity:1"
         d="M 53.672622,26.747024 A 26.836309,26.836309 0 0 1 26.836311,53.583333 26.836309,26.836309 0 0 1 1.8774394e-6,26.747024 26.836309,26.836309 0 0 1 26.836311,-0.08928521 26.836309,26.836309 0 0 1 53.672622,26.747024 Z"
         id="path4511"
         inkscape:connector-curvature="0" />
      <path
         style="fill:#000000;fill-opacity:1;stroke:#ffffff;stroke-width:0.18496591;stroke-miterlimit:4;stroke-dasharray:none;stroke-opacity:1"
         d="M 52.924192,29.770828 A 26.276861,23.442041 0 0 1 26.647331,53.212869 26.276861,23.442041 0 0 1 0.37046988,29.770828 26.276861,23.442041 0 0 1 26.647331,6.3287858 26.276861,23.442041 0 0 1 52.924192,29.770828 Z"
         id="path4511-2"
         inkscape:connector-curvature="0" />
      <path
         style="fill:#ffffff;fill-opacity:1;stroke:#ffffff;stroke-width:0.15787832;stroke-miterlimit:4;stroke-dasharray:none;stroke-opacity:1"
         d="M 53.504702,29.014881 A 21.565706,20.809755 0 0 1 31.938995,49.824636 21.565706,20.809755 0 0 1 10.373289,29.014881 21.565706,20.809755 0 0 1 31.938995,8.2051248 21.565706,20.809755 0 0 1 53.504702,29.014881 Z"
         id="path4511-2-8"
         inkscape:connector-curvature="0" />
    </g>
  </g>
</svg>
